<?xml version="1.0" encoding="iso-8859-1"?>
<!-- Generator: Adobe Illustrator 19.1.0, SVG Export Plug-In . SVG Version: 6.00 Build 0)  -->
<svg version="1.1" id="Layer_1" xmlns="http://www.w3.org/2000/svg" xmlns:xlink="http://www.w3.org/1999/xlink" x="0px" y="0px"
	 width="80px" height="80px" viewBox="0 0 80 80" style="enable-background:new 0 0 80 80;" xml:space="preserve">
<g>
	<path style="opacity:0.12;" d="M79.6,45.62L49.24,15.4c0,0-3.64,2.23-5.24,7.98S38.13,48,38.13,48L20.6,61.19l18.8,18.8
		c0.2,0,0.4,0.02,0.6,0.02C60.18,80,76.87,65.05,79.6,45.62z"/>
	<path style="fill:#FFFFFF;" d="M66.25,42.13c-7.54,4.34-13.73,4.07-19.35,4.52c-3.95,0.38-5.29-1.53-4.59-5.41
		c0.3-1.68,0.6-3.55,0.85-5.48c0.17-1.23,0.44-1.95,1.14-2.9c1.75-2.48,3.96-4.83,7.75-5.5c1.17-0.27,0.97-0.82-0.44-0.8
		c-1.85,0.07-3.09,0.57-4.21,1.28c-1.85,1.11-2.94,1.53-3.19,0.91c-1.01-3.04,2.6-9,4.72-12.53c0.83-1.4-0.2-1.4-0.99-0.59
		c-3.99,4.09-5.96,9.43-6.97,15.66c-1.29,7.61-3.6,16.45-7.66,18.69c-1.5,0.82-2.74,1.44-3.86,1.92c-0.56,0.46-1.27,0.61-1.99,0.76
		c-0.18,0.04-0.35,0.08-0.52,0.14c0,0,0,0,0,0l-0.03,0.01c-0.63,0.18-1.26,0.41-1.91,0.42c-0.01,0.01-0.02,0.02-0.03,0.04
		c-0.41,0.08-0.83,0.14-1.27,0.21c0,0,0,0,0,0c-0.51,0.12-1.03,0.2-1.56,0.21c-0.01,0-0.01,0-0.02,0c-0.26,0.03-0.53,0.06-0.81,0.09
		c0,0,0-0.01-0.01-0.01c-0.41,0.11-0.81,0.15-1.21,0.15l-0.05,0.01c0,0-0.01,0-0.01-0.01c-0.72,0-1.44-0.09-2.16,0.03
		c-0.08,0.01-0.15,0.01-0.23,0.01c-0.03,0.01-0.06,0.02-0.09,0.03c0,0,0,0,0,0.01c-0.05,0.01-0.1,0.03-0.14,0.06
		c-0.27,0.15-0.38,0.37-0.35,0.63c0,0.01,0,0.01,0.01,0.02c0.26,1.32,0.9,2.55,1.47,3.76c0.54,1.13,1.25,1.9,2.07,2.75
		c0.09,0.04,0.2,0.05,0.27,0c0.13-0.01,0.25-0.04,0.36-0.06c0,0,0.01,0.01,0.01,0.01c1.44-0.33,2.9-0.64,4.31-1.07
		c0.44-0.13,0.85-0.24,1.25-0.33l0.43-0.16c0.27-0.05,0.61-0.06,1.01-0.05c0.01,0,0.02,0,0.03,0c0.69,0.01,1.38,0.09,2.05,0.2
		c0.01,0,0.03,0,0.04,0c0.84,0.12,1.68,0.23,2.48,0.52c1.73,0.34,3.73,0.73,5.95,1c0.82,0.11,1.38-0.76,0.37-1.05
		c-2.42-0.79-3.97-1.35-4.91-1.8c-0.26-0.04-0.45-0.18-0.58-0.35c-0.02,0-0.03,0-0.05,0.01c-0.87-0.55-0.71-0.94-0.19-1.47
		c2.26-1.29,4.46-2.69,6.75-3.95c8.12-4.48,14.15-1.09,26.72-9.34C68.08,42.54,68.17,40.98,66.25,42.13z"/>
</g>
</svg>
