<?xml version="1.0" encoding="iso-8859-1"?>
<!-- Generator: Adobe Illustrator 19.1.0, SVG Export Plug-In . SVG Version: 6.00 Build 0)  -->
<svg version="1.1" id="Layer_1" xmlns="http://www.w3.org/2000/svg" xmlns:xlink="http://www.w3.org/1999/xlink" x="0px" y="0px"
	 width="80px" height="80px" viewBox="0 0 80 80" style="enable-background:new 0 0 80 80;" xml:space="preserve">
<g>
	<path style="opacity:0.12;" d="M76.18,57.07L46.95,27.58l-1.02,6.55L34.79,22.86L32.3,41.58l-0.89,4.8l4.44,5.52l-1.64,5.68
		l19.84,19.88C63.81,73.79,71.76,66.43,76.18,57.07z"/>
	<g>
		<g>
			<path style="fill:#FFFFFF;" d="M43.85,37.26c-0.2-0.07-0.41-0.11-0.62-0.13l-2.3-0.2v-2.35c0-0.8,0.65-1.46,1.46-1.46
				c0.8,0,1.46,0.65,1.46,1.46V37.26z"/>
		</g>
		<g>
			<path style="fill:#FFFFFF;" d="M37.49,36.63c-0.07-0.01-0.13-0.01-0.19-0.01c-0.17,0-0.25,0.01-0.31,0.02
				c-0.12,0.01-0.24,0.03-0.36,0.05v-3.79c0-0.8,0.65-1.46,1.46-1.46c0.8,0,1.46,0.65,1.46,1.46v3.9L37.49,36.63z"/>
		</g>
		<g>
			<path style="fill:#FFFFFF;" d="M32.3,23.88c0-0.8,0.65-1.46,1.46-1.46c0.39,0,0.75,0.15,1.03,0.43c0.28,0.28,0.43,0.64,0.43,1.03
				v13.43c-0.25,0.19-0.48,0.4-0.67,0.64c-0.17,0.21-0.31,0.44-0.42,0.69l-1.82,2.94V23.88z"/>
		</g>
		<g>
			<path style="fill:#FFFFFF;" d="M34.21,57.57l1.64-5.68c0,0-3.58-3.46-3.59-3.47c-0.55-0.55-0.85-1.27-0.85-2.05
				c0-0.34,0.06-0.67,0.19-1.01c0.05-0.17,0.11-0.31,0.18-0.43l3.5-5.66c0.11-0.22,0.2-0.37,0.31-0.51
				c0.04-0.05,0.09-0.11,0.14-0.16c0.19-0.19,0.41-0.35,0.67-0.47c0.05-0.02,0.11-0.05,0.16-0.07c0.08-0.03,0.13-0.04,0.18-0.06
				L36.84,38c0.15-0.03,0.22-0.04,0.28-0.05c0.06-0.01,0.1-0.01,0.16-0.01l0.1,0l5.75,0.5c0.32,0.02,0.61,0.17,0.82,0.42
				c0.11,0.13,0.19,0.27,0.23,0.42l0.03,0.12l0.02,0.13c0.01,0.11,0.01,0.15,0,0.2c-0.02,0.25-0.12,0.49-0.28,0.68
				c-0.04,0.05-0.08,0.09-0.13,0.13c-0.22,0.19-0.49,0.29-0.78,0.29c0,0-4.24-0.33-4.24-0.33c-0.26,0-0.45,0.1-0.58,0.27l-1.74,2.38
				c-0.16,0.22-0.17,0.53-0.02,0.75c0.12,0.18,0.33,0.29,0.54,0.29h0.05l0.11-0.02l0.65-0.16c0.03-0.01,0.77-0.19,1.75-0.19
				c1.23,0,2.27,0.27,3.11,0.81c0.15,0.1,0.26,0.17,0.36,0.25c0.15,0.12,0.25,0.21,0.35,0.31c0.06,0.06,0.13,0.11,0.22,0.14
				l0.07,0.03c0,0,0.18,0.02,0.18,0.02c0.11,0,0.21-0.03,0.31-0.08h0.04l0.23-0.23v-0.04c0.13-0.25,0.09-0.57-0.12-0.78
				c-0.08-0.08-0.16-0.16-0.25-0.23l-0.26-0.21l-0.36-0.25l-0.27-0.17c-0.06-0.04-0.13-0.07-0.19-0.11
				c-0.14-0.07-0.22-0.11-0.29-0.14l-0.3-0.13c-0.12-0.05-0.21-0.08-0.31-0.11c-0.77-0.26-1.62-0.39-2.53-0.39
				c-0.38,0-0.73,0.02-1.03,0.05l0.53-0.72l3.78,0.3c0.06,0,0.12,0.01,0.19,0.01c0,0,0.23-0.01,0.28-0.01l0.24-0.04
				c0,0,0.17-0.04,0.22-0.06l0.22-0.08l0.22-0.1c0.21-0.12,0.34-0.21,0.46-0.32c0.51-0.44,0.82-1.05,0.87-1.71
				c0.01-0.13,0.01-0.26,0-0.38c-0.05-0.4-0.15-0.72-0.3-1.01c0-1.36,0-10.2,0-10.2c0-0.55,0.45-1,1-1s1,0.45,1,1v4.96l0,0.67
				c-0.01,0.8-0.01,1.62,0.07,2.44c0.05,0.52,0.13,0.99,0.25,1.43c0.15,0.59,0.28,1.18,0.41,1.77l0.52,2.37
				c0.07,0.29,0.11,0.56,0.11,0.82c0,0.32-0.05,0.63-0.14,0.93l-1.92,7.97l0.57,5.98H34.21z"/>
		</g>
	</g>
</g>
</svg>
