<?xml version="1.0" encoding="utf-8"?>
<!-- Generator: Adobe Illustrator 21.0.0, SVG Export Plug-In . SVG Version: 6.00 Build 0)  -->
<svg version="1.1" id="Layer_1" xmlns="http://www.w3.org/2000/svg" xmlns:xlink="http://www.w3.org/1999/xlink" x="0px" y="0px"
	 viewBox="0 0 512 199" style="enable-background:new 0 0 512 199;" xml:space="preserve">
<style type="text/css">
	.st0{fill:none;stroke:#BF5A4E;stroke-width:2;stroke-miterlimit:10;stroke-dasharray:6.0399,6.0399;}
	.st1{fill:none;}
	.st2{fill:none;stroke:#AAAAAA;stroke-width:2;stroke-miterlimit:10;}
	.st3{fill:#AAAAAA;}
	.st4{fill:#666666;}
</style>
<g id="Layer_2">
	<g>
		<path class="st0" d="M51,154L51,154c-27.6,0-50-22.4-50-50l0,0c0-27.6,22.4-50,50-50l0,0c27.6,0,50,22.4,50,50l0,0
			C101,131.6,78.6,154,51,154z"/>
	</g>
	<g>
		<path class="st0" d="M187.7,154L187.7,154c-27.6,0-50-22.4-50-50l0,0c0-27.6,22.4-50,50-50l0,0c27.6,0,50,22.4,50,50l0,0
			C237.7,131.6,215.3,154,187.7,154z"/>
	</g>
	<g>
		<path class="st0" d="M324.3,154L324.3,154c-27.6,0-50-22.4-50-50l0,0c0-27.6,22.4-50,50-50l0,0c27.6,0,50,22.4,50,50l0,0
			C374.3,131.6,351.9,154,324.3,154z"/>
	</g>
	<g>
		<path class="st0" d="M461,154L461,154c-27.6,0-50-22.4-50-50l0,0c0-27.6,22.4-50,50-50l0,0c27.6,0,50,22.4,50,50l0,0
			C511,131.6,488.6,154,461,154z"/>
	</g>
	<g>
		<line class="st1" x1="101" y1="105" x2="138" y2="105"/>
		<g>
			<line class="st2" x1="101" y1="105" x2="138" y2="105"/>
			<g>
				<circle class="st3" cx="101" cy="105" r="6"/>
			</g>
			<g>
				<circle class="st3" cx="138" cy="105" r="6"/>
			</g>
		</g>
	</g>
	<g>
		<g>
			<polyline class="st2" points="325,154 325,198 461,198 461,170 			"/>
			<g>
				<circle class="st3" cx="325" cy="154" r="6"/>
			</g>
			<g>
				<polygon class="st3" points="468,172 461,159.9 454,172 				"/>
			</g>
		</g>
	</g>
	<g>
		<g>
			<path class="st4" d="M30.3,126.4h-1.4v-10h1.4V126.4z"/>
			<path class="st4" d="M32.3,122.8c0-1.2,0.3-2.1,0.8-2.9s1.2-1.1,2.1-1.1c0.4,0,0.8,0.1,1.2,0.2c0.3,0.2,0.6,0.4,0.9,0.7v-4.1h1.3
				v10.7h-1.1l-0.2-0.9c-0.2,0.3-0.5,0.6-0.9,0.8s-0.8,0.3-1.2,0.3c-0.9,0-1.6-0.3-2.1-1c-0.5-0.7-0.8-1.5-0.8-2.6L32.3,122.8
				L32.3,122.8z M33.6,123c0,0.7,0.2,1.3,0.5,1.8c0.3,0.4,0.8,0.7,1.4,0.7c0.4,0,0.7-0.1,1-0.3c0.3-0.2,0.5-0.4,0.7-0.8V121
				c-0.2-0.3-0.4-0.5-0.7-0.7c-0.3-0.2-0.6-0.3-1-0.3c-0.6,0-1.1,0.3-1.4,0.8s-0.5,1.2-0.5,2.1L33.6,123L33.6,123z"/>
			<path class="st4" d="M43.6,126.5c-1,0-1.8-0.3-2.5-1c-0.6-0.7-0.9-1.6-0.9-2.7v-0.3c0-1.1,0.3-1.9,0.9-2.6c0.6-0.7,1.4-1,2.2-1
				c1,0,1.8,0.3,2.3,0.9s0.8,1.4,0.8,2.4v0.8h-4.8l0,0c0,0.7,0.2,1.3,0.5,1.7c0.3,0.5,0.8,0.7,1.5,0.7c0.5,0,0.9-0.1,1.2-0.2
				s0.6-0.3,0.9-0.5l0.5,0.9c-0.3,0.3-0.6,0.5-1,0.7C44.7,126.5,44.2,126.5,43.6,126.5z M43.4,119.9c-0.5,0-0.8,0.2-1.2,0.6
				c-0.3,0.4-0.5,0.9-0.6,1.4l0,0h3.4v-0.2c0-0.5-0.1-1-0.4-1.3S43.9,119.9,43.4,119.9z"/>
			<path class="st4" d="M49.1,119l0.1,1.1c0.2-0.4,0.6-0.7,0.9-0.9c0.4-0.2,0.8-0.3,1.3-0.3c0.8,0,1.4,0.2,1.9,0.7
				c0.4,0.5,0.7,1.2,0.7,2.2v4.7h-1.3v-4.6c0-0.7-0.1-1.1-0.4-1.4S51.5,120,51,120c-0.4,0-0.7,0.1-1,0.3c-0.3,0.2-0.5,0.4-0.7,0.8
				v5.4h-1.3V119L49.1,119L49.1,119z"/>
			<path class="st4" d="M57.7,117.2v1.8h1.4v1h-1.4v4.5c0,0.3,0.1,0.6,0.2,0.7c0.1,0.1,0.3,0.2,0.6,0.2c0.1,0,0.2,0,0.3,0
				c0.1,0,0.2,0,0.2-0.1l0.2,0.9c-0.1,0.1-0.2,0.1-0.4,0.2c-0.2,0.1-0.4,0.1-0.6,0.1c-0.5,0-1-0.2-1.3-0.5c-0.3-0.3-0.5-0.8-0.5-1.6
				V120h-1.2v-1h1.2v-1.8C56.3,117.2,57.7,117.2,57.7,117.2z"/>
			<path class="st4" d="M62.2,117.1h-1.3v-1.4h1.3V117.1z M62.2,126.4h-1.3V119h1.3V126.4z"/>
			<path class="st4" d="M64.8,126.4V120h-1.2v-1h1.2v-0.9c0-0.8,0.2-1.4,0.6-1.8s1-0.6,1.7-0.6c0.2,0,0.3,0,0.5,0
				c0.2,0,0.3,0.1,0.5,0.1l-0.2,1c-0.1,0-0.2,0-0.3,0s-0.2,0-0.4,0c-0.4,0-0.7,0.1-0.9,0.4s-0.3,0.6-0.3,1v0.9h1.5v1h-1.5v6.4
				L64.8,126.4L64.8,126.4z"/>
			<path class="st4" d="M71.3,123.7l0.2,0.9h0l1.8-5.6h1.5l-3.1,8.5c-0.2,0.5-0.5,0.9-0.8,1.3s-0.8,0.6-1.4,0.6c-0.1,0-0.2,0-0.4,0
				c-0.2,0-0.3,0-0.4-0.1l0.1-1.1c0,0,0.1,0,0.2,0s0.3,0,0.4,0c0.3,0,0.5-0.1,0.7-0.4c0.2-0.3,0.3-0.5,0.5-0.8l0.3-0.8l-2.7-7.2h1.5
				L71.3,123.7z"/>
		</g>
		<g>
			<path class="st4" d="M312.5,123.2L312.5,123.2c0,1-0.3,1.8-1,2.4c-0.7,0.6-1.6,0.9-2.7,0.9c-1.1,0-2-0.4-2.8-1.2
				c-0.7-0.8-1.1-1.8-1.1-3v-1.8c0-1.2,0.4-2.2,1.1-3c0.7-0.8,1.6-1.2,2.8-1.2c1.1,0,2,0.3,2.7,0.9c0.7,0.6,1,1.4,1,2.4l0,0h-1.3
				c0-0.7-0.2-1.2-0.6-1.7c-0.4-0.4-1-0.6-1.7-0.6c-0.8,0-1.4,0.3-1.8,0.9c-0.4,0.6-0.7,1.4-0.7,2.3v1.8c0,0.9,0.2,1.7,0.7,2.3
				c0.4,0.6,1,0.9,1.8,0.9c0.7,0,1.3-0.2,1.7-0.6s0.6-1,0.6-1.7L312.5,123.2L312.5,123.2z"/>
			<path class="st4" d="M317.6,120.2l-0.7,0c-0.4,0-0.7,0.1-0.9,0.3c-0.2,0.2-0.4,0.4-0.6,0.7v5.3h-1.3V119h1.2l0.1,1.1
				c0.2-0.4,0.5-0.7,0.8-0.9c0.3-0.2,0.7-0.3,1.1-0.3c0.1,0,0.2,0,0.3,0c0.1,0,0.2,0,0.2,0.1L317.6,120.2z"/>
			<path class="st4" d="M321.9,126.5c-1,0-1.9-0.3-2.5-1s-0.9-1.6-0.9-2.7v-0.3c0-1.1,0.3-1.9,0.9-2.6c0.6-0.7,1.4-1,2.2-1
				c1,0,1.8,0.3,2.3,0.9c0.5,0.6,0.8,1.4,0.8,2.4v0.8h-4.8l0,0c0,0.7,0.2,1.3,0.5,1.7c0.3,0.5,0.8,0.7,1.5,0.7
				c0.5,0,0.9-0.1,1.2-0.2c0.3-0.1,0.6-0.3,0.9-0.5l0.5,0.9c-0.3,0.3-0.6,0.5-1,0.7C323,126.5,322.5,126.5,321.9,126.5z
				 M321.7,119.9c-0.5,0-0.8,0.2-1.2,0.6c-0.3,0.4-0.5,0.9-0.6,1.4l0,0h3.4v-0.2c0-0.5-0.1-1-0.4-1.3
				C322.6,120.1,322.2,119.9,321.7,119.9z"/>
			<path class="st4" d="M330.7,126.4c0-0.2-0.1-0.4-0.1-0.6c0-0.2,0-0.3,0-0.5c-0.3,0.4-0.6,0.7-1,0.9s-0.8,0.4-1.3,0.4
				c-0.8,0-1.4-0.2-1.8-0.6c-0.4-0.4-0.6-0.9-0.6-1.6c0-0.7,0.3-1.3,0.9-1.7c0.6-0.4,1.3-0.6,2.3-0.6h1.5v-0.7c0-0.4-0.1-0.8-0.4-1
				c-0.3-0.3-0.6-0.4-1.1-0.4c-0.4,0-0.8,0.1-1.1,0.3c-0.3,0.2-0.4,0.5-0.4,0.8h-1.3l0,0c0-0.5,0.2-1,0.8-1.5
				c0.5-0.4,1.2-0.7,2.1-0.7c0.8,0,1.5,0.2,2,0.6c0.5,0.4,0.8,1,0.8,1.8v3.6c0,0.3,0,0.5,0,0.8s0.1,0.5,0.1,0.7L330.7,126.4
				L330.7,126.4z M328.5,125.4c0.5,0,0.9-0.1,1.3-0.4s0.6-0.5,0.8-0.9V123h-1.5c-0.5,0-1,0.1-1.3,0.4c-0.3,0.3-0.5,0.6-0.5,1
				c0,0.3,0.1,0.6,0.3,0.8C327.8,125.3,328.1,125.4,328.5,125.4z"/>
			<path class="st4" d="M335.7,117.2v1.8h1.4v1h-1.4v4.5c0,0.3,0.1,0.6,0.2,0.7c0.1,0.1,0.3,0.2,0.6,0.2c0.1,0,0.2,0,0.3,0
				c0.1,0,0.2,0,0.2-0.1l0.2,0.9c-0.1,0.1-0.2,0.1-0.4,0.2c-0.2,0.1-0.4,0.1-0.6,0.1c-0.5,0-1-0.2-1.3-0.5c-0.3-0.3-0.5-0.8-0.5-1.6
				V120h-1.2v-1h1.2v-1.8C334.3,117.2,335.7,117.2,335.7,117.2z"/>
			<path class="st4" d="M341.8,126.5c-1,0-1.9-0.3-2.5-1s-0.9-1.6-0.9-2.7v-0.3c0-1.1,0.3-1.9,0.9-2.6c0.6-0.7,1.4-1,2.2-1
				c1,0,1.8,0.3,2.3,0.9c0.5,0.6,0.8,1.4,0.8,2.4v0.8h-4.8l0,0c0,0.7,0.2,1.3,0.5,1.7c0.3,0.5,0.8,0.7,1.5,0.7
				c0.5,0,0.9-0.1,1.2-0.2c0.3-0.1,0.6-0.3,0.9-0.5l0.5,0.9c-0.3,0.3-0.6,0.5-1,0.7C342.9,126.5,342.4,126.5,341.8,126.5z
				 M341.6,119.9c-0.5,0-0.8,0.2-1.2,0.6c-0.3,0.4-0.5,0.9-0.6,1.4l0,0h3.4v-0.2c0-0.5-0.1-1-0.4-1.3
				C342.6,120.1,342.1,119.9,341.6,119.9z"/>
		</g>
		<g>
			<path class="st4" d="M430.3,126.4h-1.4v-10h1.4V126.4z"/>
			<path class="st4" d="M433.8,119l0.1,1c0.2-0.4,0.5-0.6,0.9-0.8c0.4-0.2,0.8-0.3,1.3-0.3s0.9,0.1,1.3,0.3c0.4,0.2,0.6,0.6,0.8,1
				c0.2-0.4,0.5-0.8,0.9-1s0.8-0.4,1.3-0.4c0.8,0,1.3,0.3,1.8,0.8c0.4,0.5,0.7,1.3,0.7,2.3v4.4h-1.3V122c0-0.7-0.1-1.2-0.4-1.5
				c-0.3-0.3-0.6-0.5-1.1-0.5c-0.5,0-0.8,0.2-1.1,0.5c-0.3,0.3-0.5,0.7-0.5,1.2v0.1v4.7H437V122c0-0.7-0.1-1.2-0.4-1.5
				s-0.6-0.5-1.1-0.5c-0.4,0-0.7,0.1-1,0.3c-0.3,0.2-0.5,0.4-0.6,0.7v5.5h-1.3V119L433.8,119L433.8,119z"/>
			<path class="st4" d="M451.1,123c0,1.1-0.3,1.9-0.8,2.6c-0.5,0.7-1.2,1-2.1,1c-0.5,0-0.9-0.1-1.2-0.2c-0.3-0.2-0.6-0.4-0.9-0.7
				v3.6h-1.3V119h1l0.2,1c0.2-0.4,0.5-0.6,0.9-0.8c0.4-0.2,0.8-0.3,1.3-0.3c0.9,0,1.6,0.4,2.1,1.1c0.5,0.7,0.8,1.7,0.8,2.9V123z
				 M449.8,122.8c0-0.8-0.2-1.5-0.5-2.1c-0.3-0.5-0.8-0.8-1.5-0.8c-0.4,0-0.7,0.1-1,0.3s-0.5,0.4-0.7,0.7v3.6
				c0.2,0.3,0.4,0.5,0.7,0.7c0.3,0.2,0.6,0.3,1,0.3c0.6,0,1.1-0.2,1.4-0.7s0.5-1.1,0.5-1.8L449.8,122.8L449.8,122.8z"/>
			<path class="st4" d="M454.2,126.4h-1.3v-10.7h1.3V126.4z"/>
			<path class="st4" d="M459.4,126.5c-1,0-1.8-0.3-2.5-1s-0.9-1.6-0.9-2.7v-0.3c0-1.1,0.3-1.9,0.9-2.6c0.6-0.7,1.4-1,2.2-1
				c1,0,1.8,0.3,2.3,0.9c0.5,0.6,0.8,1.4,0.8,2.4v0.8h-4.8l0,0c0,0.7,0.2,1.3,0.5,1.7c0.3,0.5,0.8,0.7,1.5,0.7
				c0.5,0,0.9-0.1,1.2-0.2s0.6-0.3,0.9-0.5l0.5,0.9c-0.3,0.3-0.6,0.5-1,0.7C460.5,126.5,460,126.5,459.4,126.5z M459.1,119.9
				c-0.5,0-0.8,0.2-1.2,0.6c-0.3,0.4-0.5,0.9-0.6,1.4l0,0h3.4v-0.2c0-0.5-0.1-1-0.4-1.3C460.1,120.1,459.7,119.9,459.1,119.9z"/>
			<path class="st4" d="M464.9,119l0.1,1c0.2-0.4,0.5-0.6,0.9-0.8c0.4-0.2,0.8-0.3,1.3-0.3s0.9,0.1,1.3,0.3c0.4,0.2,0.6,0.6,0.8,1
				c0.2-0.4,0.5-0.8,0.9-1s0.8-0.4,1.3-0.4c0.8,0,1.3,0.3,1.8,0.8c0.4,0.5,0.7,1.3,0.7,2.3v4.4h-1.3V122c0-0.7-0.1-1.2-0.4-1.5
				c-0.2-0.3-0.6-0.5-1.1-0.5c-0.5,0-0.8,0.2-1.1,0.5c-0.3,0.3-0.5,0.7-0.5,1.2v0.1v4.7h-1.4V122c0-0.7-0.1-1.2-0.4-1.5
				s-0.6-0.5-1.1-0.5c-0.4,0-0.7,0.1-1,0.3c-0.3,0.2-0.5,0.4-0.6,0.7v5.5h-1.3V119L464.9,119L464.9,119z"/>
			<path class="st4" d="M479,126.5c-1,0-1.9-0.3-2.5-1s-0.9-1.6-0.9-2.7v-0.3c0-1.1,0.3-1.9,0.9-2.6c0.6-0.7,1.4-1,2.2-1
				c1,0,1.8,0.3,2.3,0.9c0.5,0.6,0.8,1.4,0.8,2.4v0.8H477l0,0c0,0.7,0.2,1.3,0.5,1.7c0.3,0.5,0.8,0.7,1.5,0.7c0.5,0,0.9-0.1,1.2-0.2
				s0.6-0.3,0.9-0.5l0.5,0.9c-0.3,0.3-0.6,0.5-1,0.7C480.1,126.5,479.6,126.5,479,126.5z M478.8,119.9c-0.5,0-0.8,0.2-1.2,0.6
				c-0.3,0.4-0.5,0.9-0.6,1.4l0,0h3.4v-0.2c0-0.5-0.1-1-0.4-1.3C479.8,120.1,479.3,119.9,478.8,119.9z"/>
			<path class="st4" d="M484.5,119l0.1,1.1c0.2-0.4,0.6-0.7,0.9-0.9c0.4-0.2,0.8-0.3,1.3-0.3c0.8,0,1.4,0.2,1.9,0.7
				c0.4,0.5,0.7,1.2,0.7,2.2v4.7H488v-4.6c0-0.7-0.1-1.1-0.4-1.4s-0.6-0.4-1.2-0.4c-0.4,0-0.7,0.1-1,0.3c-0.3,0.2-0.5,0.4-0.7,0.8
				v5.4h-1.3V119L484.5,119L484.5,119z"/>
			<path class="st4" d="M493.1,117.2v1.8h1.4v1h-1.4v4.5c0,0.3,0.1,0.6,0.2,0.7c0.1,0.1,0.3,0.2,0.6,0.2c0.1,0,0.2,0,0.3,0
				c0.1,0,0.2,0,0.2-0.1l0.2,0.9c-0.1,0.1-0.2,0.1-0.4,0.2c-0.2,0.1-0.4,0.1-0.6,0.1c-0.5,0-1-0.2-1.3-0.5c-0.3-0.3-0.5-0.8-0.5-1.6
				V120h-1.2v-1h1.2v-1.8C491.7,117.2,493.1,117.2,493.1,117.2z"/>
		</g>
		<g>
			<path class="st4" d="M162.6,123.9c0-0.5-0.2-0.8-0.5-1.1s-0.9-0.6-1.8-0.8c-1.1-0.3-1.9-0.6-2.5-1.1c-0.6-0.5-0.9-1.1-0.9-1.8
				c0-0.8,0.3-1.4,1-1.9c0.6-0.5,1.5-0.8,2.5-0.8c1.1,0,2,0.3,2.6,0.9c0.6,0.6,1,1.3,0.9,2.1l0,0h-1.3c0-0.6-0.2-1.1-0.6-1.4
				c-0.4-0.4-0.9-0.5-1.7-0.5c-0.7,0-1.2,0.2-1.5,0.5c-0.4,0.3-0.5,0.7-0.5,1.2c0,0.4,0.2,0.8,0.6,1.1c0.4,0.3,1,0.5,1.9,0.8
				c1,0.3,1.8,0.6,2.4,1.1s0.8,1.1,0.8,1.9c0,0.8-0.3,1.4-1,1.9c-0.7,0.5-1.5,0.7-2.6,0.7c-1,0-1.9-0.3-2.6-0.8s-1.1-1.3-1.1-2.2
				l0,0h1.3c0,0.6,0.2,1.1,0.7,1.5c0.5,0.3,1.1,0.5,1.7,0.5c0.7,0,1.2-0.1,1.6-0.4C162.4,124.8,162.6,124.4,162.6,123.9z"/>
			<path class="st4" d="M167.4,117.2v1.8h1.4v1h-1.4v4.5c0,0.3,0.1,0.6,0.2,0.7c0.1,0.1,0.3,0.2,0.6,0.2c0.1,0,0.2,0,0.3,0
				c0.1,0,0.2,0,0.2-0.1l0.2,0.9c-0.1,0.1-0.2,0.1-0.4,0.2c-0.2,0.1-0.4,0.1-0.6,0.1c-0.5,0-1-0.2-1.3-0.5c-0.3-0.3-0.5-0.8-0.5-1.6
				V120h-1.2v-1h1.2v-1.8C166.1,117.2,167.4,117.2,167.4,117.2z"/>
			<path class="st4" d="M174,120.2l-0.7,0c-0.4,0-0.7,0.1-0.9,0.3c-0.2,0.2-0.4,0.4-0.6,0.7v5.3h-1.3V119h1.2l0.1,1.1
				c0.2-0.4,0.5-0.7,0.8-0.9c0.3-0.2,0.7-0.3,1.1-0.3c0.1,0,0.2,0,0.3,0c0.1,0,0.2,0,0.2,0.1L174,120.2z"/>
			<path class="st4" d="M179.8,126.4c0-0.2-0.1-0.4-0.1-0.6s0-0.3,0-0.5c-0.2,0.4-0.6,0.7-1,0.9s-0.8,0.4-1.3,0.4
				c-0.8,0-1.4-0.2-1.8-0.6c-0.4-0.4-0.6-0.9-0.6-1.6c0-0.7,0.3-1.3,0.9-1.7c0.6-0.4,1.3-0.6,2.3-0.6h1.5v-0.7c0-0.4-0.1-0.8-0.4-1
				s-0.6-0.4-1.1-0.4c-0.4,0-0.8,0.1-1.1,0.3c-0.3,0.2-0.4,0.5-0.4,0.8h-1.3l0,0c0-0.5,0.2-1,0.8-1.5c0.5-0.4,1.2-0.7,2.1-0.7
				c0.8,0,1.5,0.2,2,0.6c0.5,0.4,0.8,1,0.8,1.8v3.6c0,0.3,0,0.5,0,0.8s0.1,0.5,0.1,0.7L179.8,126.4L179.8,126.4z M177.6,125.4
				c0.5,0,0.9-0.1,1.3-0.4s0.6-0.5,0.8-0.9V123h-1.5c-0.5,0-1,0.1-1.3,0.4c-0.3,0.3-0.5,0.6-0.5,1c0,0.3,0.1,0.6,0.3,0.8
				C176.9,125.3,177.2,125.4,177.6,125.4z"/>
			<path class="st4" d="M184.8,117.2v1.8h1.4v1h-1.4v4.5c0,0.3,0.1,0.6,0.2,0.7c0.1,0.1,0.3,0.2,0.6,0.2c0.1,0,0.2,0,0.3,0
				c0.1,0,0.2,0,0.2-0.1l0.2,0.9c-0.1,0.1-0.2,0.1-0.4,0.2c-0.2,0.1-0.4,0.1-0.6,0.1c-0.5,0-1-0.2-1.3-0.5c-0.3-0.3-0.5-0.8-0.5-1.6
				V120h-1.2v-1h1.2v-1.8C183.4,117.2,184.8,117.2,184.8,117.2z"/>
			<path class="st4" d="M190.9,126.5c-1,0-1.8-0.3-2.5-1c-0.6-0.7-0.9-1.6-0.9-2.7v-0.3c0-1.1,0.3-1.9,0.9-2.6c0.6-0.7,1.4-1,2.2-1
				c1,0,1.8,0.3,2.3,0.9s0.8,1.4,0.8,2.4v0.8h-4.8l0,0c0,0.7,0.2,1.3,0.5,1.7c0.3,0.5,0.8,0.7,1.5,0.7c0.5,0,0.9-0.1,1.2-0.2
				s0.6-0.3,0.9-0.5l0.5,0.9c-0.3,0.3-0.6,0.5-1,0.7C192,126.5,191.5,126.5,190.9,126.5z M190.7,119.9c-0.5,0-0.8,0.2-1.2,0.6
				c-0.3,0.4-0.5,0.9-0.6,1.4l0,0h3.4v-0.2c0-0.5-0.1-1-0.4-1.3S191.2,119.9,190.7,119.9z"/>
			<path class="st4" d="M194.9,122.8c0-1.2,0.3-2.1,0.8-2.9c0.5-0.7,1.2-1.1,2.2-1.1c0.5,0,0.9,0.1,1.2,0.3c0.4,0.2,0.7,0.5,0.9,0.8
				l0.2-1h1.1v7.4c0,0.9-0.3,1.7-0.8,2.2c-0.6,0.5-1.3,0.8-2.4,0.8c-0.4,0-0.7,0-1.2-0.1s-0.8-0.2-1.1-0.4l0.3-1
				c0.2,0.1,0.5,0.2,0.9,0.3c0.3,0.1,0.7,0.1,1,0.1c0.7,0,1.1-0.1,1.4-0.4c0.3-0.3,0.4-0.8,0.4-1.4v-0.8c-0.2,0.3-0.5,0.5-0.9,0.7
				s-0.7,0.2-1.2,0.2c-0.9,0-1.6-0.3-2.1-1s-0.8-1.5-0.8-2.6L194.9,122.8L194.9,122.8z M196.3,123c0,0.7,0.2,1.3,0.5,1.8
				s0.8,0.7,1.4,0.7c0.4,0,0.7-0.1,1-0.3s0.5-0.4,0.7-0.8V121c-0.2-0.3-0.4-0.6-0.7-0.7s-0.6-0.3-1-0.3c-0.6,0-1.1,0.3-1.4,0.8
				c-0.3,0.5-0.5,1.2-0.5,2.1L196.3,123L196.3,123z"/>
			<path class="st4" d="M204.6,117.1h-1.3v-1.4h1.3V117.1z M204.6,126.4h-1.3V119h1.3V126.4z"/>
			<path class="st4" d="M208,125.3h4.3v1.1h-5.9v-0.9l4-5.4h-4V119h5.6v0.9L208,125.3z"/>
			<path class="st4" d="M216.7,126.5c-1,0-1.8-0.3-2.5-1c-0.6-0.7-0.9-1.6-0.9-2.7v-0.3c0-1.1,0.3-1.9,0.9-2.6c0.6-0.7,1.4-1,2.2-1
				c1,0,1.8,0.3,2.3,0.9s0.8,1.4,0.8,2.4v0.8h-4.8l0,0c0,0.7,0.2,1.3,0.5,1.7c0.3,0.5,0.8,0.7,1.5,0.7c0.5,0,0.9-0.1,1.2-0.2
				s0.6-0.3,0.9-0.5l0.5,0.9c-0.3,0.3-0.6,0.5-1,0.7C217.8,126.5,217.3,126.5,216.7,126.5z M216.5,119.9c-0.5,0-0.8,0.2-1.2,0.6
				c-0.3,0.4-0.5,0.9-0.6,1.4l0,0h3.4v-0.2c0-0.5-0.1-1-0.4-1.3S217.1,119.9,216.5,119.9z"/>
		</g>
		<g>
			<path class="st4" d="M46.1,97.7l3.4-0.4V83.8H46v-2.3l7.4-1.3v17.1l3.4,0.4v2.4H46.1V97.7z"/>
		</g>
		<g>
			<path class="st4" d="M322.3,88.4h2.2c0.9,0,1.6-0.2,2.1-0.7c0.5-0.5,0.7-1.2,0.7-2.1c0-0.8-0.2-1.4-0.7-1.9
				c-0.5-0.5-1.1-0.7-2-0.7c-0.7,0-1.4,0.2-1.9,0.7c-0.5,0.4-0.8,1-0.8,1.7h-3.9l0-0.1c-0.1-1.6,0.5-2.8,1.8-3.9
				c1.2-1,2.8-1.5,4.6-1.5c2.1,0,3.7,0.5,4.9,1.5c1.2,1,1.8,2.4,1.8,4.2c0,0.9-0.3,1.7-0.8,2.5s-1.3,1.4-2.3,1.8
				c1.1,0.4,1.9,1,2.5,1.8c0.6,0.8,0.9,1.8,0.9,2.8c0,1.8-0.7,3.3-2,4.3s-3,1.6-5.1,1.6c-1.9,0-3.4-0.5-4.8-1.5s-2-2.4-1.9-4.1
				l0-0.1h3.9c0,0.8,0.3,1.4,0.8,1.9s1.2,0.7,2.1,0.7c0.9,0,1.6-0.3,2.2-0.8s0.8-1.2,0.8-2.1c0-1-0.3-1.8-0.8-2.3
				c-0.5-0.5-1.3-0.7-2.3-0.7h-2.2L322.3,88.4L322.3,88.4z"/>
		</g>
		<g>
			<path class="st4" d="M466.3,92.7h2.3v2.7h-2.3v2l2.1,0.4v2.4h-8.2v-2.4l2.1-0.4v-2h-8.1l-0.2-2l8.3-13.2h4L466.3,92.7L466.3,92.7
				z M457.7,92.7h4.6v-7.2l-0.1,0l-0.3,0.6L457.7,92.7z"/>
		</g>
		<g>
			<path class="st4" d="M181.3,100.1v-2.6l6.4-6.9c0.9-1.1,1.6-2,2-2.7c0.4-0.7,0.6-1.4,0.6-2c0-0.8-0.2-1.5-0.7-2.1
				s-1.1-0.8-1.9-0.8c-0.9,0-1.6,0.3-2.1,0.9s-0.7,1.5-0.7,2.5H181l0-0.1c0-1.8,0.5-3.3,1.8-4.6c1.2-1.2,2.9-1.9,5-1.9
				c2.1,0,3.7,0.5,4.8,1.6s1.8,2.5,1.8,4.3c0,1.2-0.3,2.3-1,3.3c-0.7,1-1.8,2.4-3.3,4l-3.5,3.9l0,0.1h5.2l0.2-2h3v5H181.3z"/>
		</g>
	</g>
	<g>
		<g>
			<path class="st2" d="M189.9,38.1C194.2,24.3,208.5,1,256.4,1c47.8,0,62.2,23.3,66.5,37.1"/>
			<g>
				<polygon class="st3" points="197.3,37.6 188,48 183.6,34.7 				"/>
			</g>
			<g>
				<polygon class="st3" points="315.4,37.6 324.7,48 329.1,34.7 				"/>
			</g>
		</g>
	</g>
</g>
</svg>
