<?xml version="1.0" encoding="iso-8859-1"?>
<!-- Generator: Adobe Illustrator 19.1.0, SVG Export Plug-In . SVG Version: 6.00 Build 0)  -->
<svg version="1.1" xmlns="http://www.w3.org/2000/svg" xmlns:xlink="http://www.w3.org/1999/xlink" x="0px" y="0px"
	 width="512" height="199" viewBox="0 0 512 199" style="enable-background:new 0 0 512 199;" xml:space="preserve">
<g id="Layer_2">
	<g>
		<path style="fill:none;stroke:#BF5A4E;stroke-width:2;stroke-miterlimit:10;stroke-dasharray:6.0399,6.0399;" d="M51,154L51,154
			c-27.614,0-50-22.386-50-50v0c0-27.614,22.386-50,50-50h0c27.614,0,50,22.386,50,50v0C101,131.614,78.614,154,51,154z"/>
	</g>
	<g>
		<path style="fill:none;stroke:#BF5A4E;stroke-width:2;stroke-miterlimit:10;stroke-dasharray:6.0399,6.0399;" d="M187.667,154
			L187.667,154c-27.614,0-50-22.386-50-50v0c0-27.614,22.386-50,50-50h0c27.614,0,50,22.386,50,50v0
			C237.667,131.614,215.281,154,187.667,154z"/>
	</g>
	<g>
		<path style="fill:none;stroke:#BF5A4E;stroke-width:2;stroke-miterlimit:10;stroke-dasharray:6.0399,6.0399;" d="M324.333,154
			L324.333,154c-27.614,0-50-22.386-50-50v0c0-27.614,22.386-50,50-50h0c27.614,0,50,22.386,50,50v0
			C374.333,131.614,351.948,154,324.333,154z"/>
	</g>
	<g>
		<path style="fill:none;stroke:#BF5A4E;stroke-width:2;stroke-miterlimit:10;stroke-dasharray:6.0399,6.0399;" d="M461,154L461,154
			c-27.614,0-50-22.386-50-50v0c0-27.614,22.386-50,50-50h0c27.614,0,50,22.386,50,50v0C511,131.614,488.614,154,461,154z"/>
	</g>
	<g>
		<line style="fill:#FFFFFF;" x1="101" y1="105" x2="138" y2="105"/>
		<g>
			<line style="fill:none;stroke:#FFFFFF;stroke-width:2;stroke-miterlimit:10;" x1="101" y1="105" x2="138" y2="105"/>
			<g>
				<circle style="fill:#FFFFFF;" cx="101" cy="105" r="6.016"/>
			</g>
			<g>
				<circle style="fill:#FFFFFF;" cx="138" cy="105" r="6.016"/>
			</g>
		</g>
	</g>
	<g>
		<g>
			<polyline style="fill:none;stroke:#FFFFFF;stroke-width:2;stroke-miterlimit:10;" points="325,154 325,198 461,198 461,170
				"/>
			<g>
				<circle style="fill:#FFFFFF;" cx="325" cy="154" r="6.016"/>
			</g>
			<g>
				<polygon style="fill:#FFFFFF;" points="467.981,172 461,159.911 454.019,172 				"/>
			</g>
		</g>
	</g>
	<g>
		<g>
			<path style="fill:#FFFFFF;" d="M30.277,126.404h-1.354v-9.953h1.354V126.404z"/>
			<path style="fill:#FFFFFF;" d="M32.253,122.843c0-1.189,0.254-2.149,0.762-2.878c0.508-0.729,1.22-1.094,2.136-1.094
				c0.433,0,0.817,0.079,1.152,0.239c0.335,0.159,0.621,0.392,0.858,0.697v-4.067h1.347v10.664h-1.101l-0.157-0.909
				c-0.242,0.346-0.538,0.608-0.889,0.786s-0.759,0.267-1.224,0.267c-0.902,0-1.609-0.327-2.119-0.981
				c-0.51-0.653-0.766-1.514-0.766-2.58V122.843z M33.6,122.986c0,0.747,0.153,1.346,0.458,1.794
				c0.305,0.449,0.779,0.674,1.422,0.674c0.401,0,0.738-0.092,1.012-0.273c0.273-0.183,0.497-0.438,0.67-0.766v-3.452
				c-0.173-0.306-0.397-0.548-0.673-0.729c-0.276-0.18-0.607-0.27-0.995-0.27c-0.647,0-1.125,0.267-1.432,0.8
				s-0.461,1.226-0.461,2.078V122.986z"/>
			<path style="fill:#FFFFFF;" d="M43.587,126.548c-1.03,0-1.849-0.343-2.458-1.029c-0.608-0.686-0.913-1.575-0.913-2.669v-0.301
				c0-1.053,0.313-1.929,0.94-2.629c0.626-0.699,1.368-1.049,2.225-1.049c0.998,0,1.752,0.301,2.263,0.902s0.766,1.403,0.766,2.406
				v0.841h-4.799l-0.021,0.034c0.014,0.709,0.194,1.292,0.54,1.748c0.346,0.457,0.832,0.686,1.456,0.686
				c0.456,0,0.855-0.065,1.2-0.195s0.642-0.309,0.892-0.536l0.526,0.876c-0.264,0.261-0.613,0.479-1.046,0.653
				C44.726,126.461,44.202,126.548,43.587,126.548z M43.382,119.931c-0.451,0-0.836,0.189-1.155,0.568
				c-0.319,0.38-0.515,0.855-0.588,1.428l0.014,0.034h3.411v-0.178c0-0.526-0.141-0.967-0.424-1.321S43.938,119.931,43.382,119.931z
				"/>
			<path style="fill:#FFFFFF;" d="M49.124,119.008l0.096,1.101c0.246-0.393,0.555-0.696,0.926-0.913
				c0.372-0.216,0.794-0.324,1.268-0.324c0.797,0,1.415,0.233,1.853,0.7c0.438,0.468,0.656,1.188,0.656,2.164v4.669h-1.347v-4.642
				c0-0.652-0.129-1.114-0.386-1.388s-0.65-0.41-1.179-0.41c-0.387,0-0.73,0.093-1.029,0.28c-0.298,0.187-0.537,0.441-0.714,0.766
				v5.394h-1.347v-7.396H49.124z"/>
			<path style="fill:#FFFFFF;" d="M57.655,117.224v1.784h1.401v0.998h-1.401v4.491c0,0.346,0.072,0.59,0.215,0.731
				c0.144,0.141,0.334,0.212,0.571,0.212c0.078,0,0.163-0.01,0.256-0.027c0.093-0.019,0.177-0.041,0.25-0.068l0.178,0.923
				c-0.1,0.082-0.247,0.149-0.441,0.201c-0.194,0.053-0.389,0.079-0.584,0.079c-0.547,0-0.982-0.165-1.306-0.496
				c-0.324-0.33-0.485-0.849-0.485-1.555v-4.491h-1.176v-0.998h1.176v-1.784H57.655z"/>
			<path style="fill:#FFFFFF;" d="M62.174,117.114h-1.347v-1.374h1.347V117.114z M62.174,126.404h-1.347v-7.396h1.347V126.404z"/>
			<path style="fill:#FFFFFF;" d="M64.806,126.404v-6.398H63.65v-0.998h1.155v-0.937c0-0.789,0.206-1.398,0.619-1.829
				s0.988-0.646,1.726-0.646c0.155,0,0.311,0.013,0.468,0.037c0.157,0.025,0.332,0.061,0.523,0.106l-0.164,1.025
				c-0.082-0.019-0.181-0.034-0.297-0.048s-0.238-0.021-0.366-0.021c-0.392,0-0.684,0.117-0.875,0.352
				c-0.191,0.235-0.287,0.575-0.287,1.022v0.937h1.538v0.998h-1.538v6.398H64.806z"/>
			<path style="fill:#FFFFFF;" d="M71.341,123.663l0.239,0.93h0.041l1.818-5.585h1.497l-3.11,8.531
				c-0.187,0.496-0.455,0.93-0.803,1.299s-0.819,0.554-1.412,0.554c-0.109,0-0.249-0.013-0.417-0.038
				c-0.168-0.024-0.298-0.049-0.39-0.071l0.137-1.06c-0.027-0.005,0.054,0,0.243,0.014s0.309,0.021,0.359,0.021
				c0.287,0,0.522-0.128,0.704-0.383c0.182-0.256,0.335-0.538,0.458-0.848l0.321-0.772l-2.748-7.246h1.504L71.341,123.663z"/>
		</g>
		<g>
			<path style="fill:#FFFFFF;" d="M312.542,123.212l0.014,0.041c0.018,0.934-0.311,1.717-0.984,2.348
				c-0.675,0.632-1.565,0.947-2.673,0.947c-1.126,0-2.043-0.399-2.752-1.196c-0.708-0.798-1.062-1.81-1.062-3.035v-1.771
				c0-1.227,0.354-2.239,1.062-3.039c0.709-0.8,1.626-1.199,2.752-1.199c1.125,0,2.021,0.3,2.687,0.898
				c0.665,0.6,0.988,1.394,0.971,2.383l-0.014,0.041h-1.292c0-0.697-0.205-1.249-0.615-1.654c-0.41-0.406-0.989-0.608-1.736-0.608
				c-0.752,0-1.352,0.303-1.798,0.908c-0.447,0.605-0.67,1.356-0.67,2.254v1.782c0,0.906,0.223,1.662,0.67,2.269
				c0.446,0.605,1.046,0.908,1.798,0.908c0.747,0,1.326-0.202,1.736-0.605s0.615-0.96,0.615-1.671H312.542z"/>
			<path style="fill:#FFFFFF;" d="M317.621,120.197l-0.69-0.041c-0.355,0-0.655,0.084-0.899,0.253
				c-0.243,0.168-0.432,0.405-0.563,0.711v5.284h-1.347v-7.396h1.203l0.13,1.08c0.209-0.383,0.468-0.682,0.775-0.896
				c0.308-0.215,0.662-0.321,1.063-0.321c0.1,0,0.195,0.008,0.287,0.023c0.091,0.017,0.166,0.033,0.226,0.052L317.621,120.197z"/>
			<path style="fill:#FFFFFF;" d="M321.859,126.548c-1.03,0-1.85-0.343-2.458-1.029c-0.608-0.686-0.912-1.575-0.912-2.669v-0.301
				c0-1.053,0.313-1.929,0.939-2.629c0.627-0.699,1.368-1.049,2.226-1.049c0.998,0,1.752,0.301,2.263,0.902
				c0.51,0.602,0.766,1.403,0.766,2.406v0.841h-4.799l-0.021,0.034c0.014,0.709,0.193,1.292,0.54,1.748
				c0.346,0.457,0.831,0.686,1.456,0.686c0.455,0,0.855-0.065,1.199-0.195c0.345-0.13,0.642-0.309,0.893-0.536l0.526,0.876
				c-0.265,0.261-0.613,0.479-1.046,0.653C322.998,126.461,322.475,126.548,321.859,126.548z M321.654,119.931
				c-0.451,0-0.837,0.189-1.155,0.568c-0.319,0.38-0.516,0.855-0.588,1.428l0.014,0.034h3.411v-0.178
				c0-0.526-0.142-0.967-0.424-1.321C322.629,120.107,322.21,119.931,321.654,119.931z"/>
			<path style="fill:#FFFFFF;" d="M330.739,126.404c-0.046-0.224-0.081-0.421-0.106-0.592c-0.024-0.171-0.04-0.343-0.044-0.516
				c-0.251,0.355-0.578,0.652-0.981,0.892s-0.837,0.359-1.302,0.359c-0.771,0-1.357-0.197-1.761-0.592
				c-0.403-0.394-0.604-0.938-0.604-1.63c0-0.707,0.286-1.259,0.857-1.658c0.572-0.398,1.348-0.598,2.328-0.598h1.463v-0.731
				c0-0.434-0.133-0.776-0.396-1.029c-0.265-0.253-0.639-0.379-1.121-0.379c-0.434,0-0.785,0.11-1.057,0.331
				c-0.271,0.222-0.406,0.486-0.406,0.797h-1.285l-0.014-0.041c-0.027-0.538,0.227-1.03,0.762-1.477
				c0.536-0.447,1.228-0.67,2.075-0.67c0.838,0,1.513,0.213,2.023,0.639c0.51,0.427,0.766,1.04,0.766,1.843v3.562
				c0,0.264,0.014,0.52,0.041,0.766s0.077,0.487,0.15,0.725H330.739z M328.504,125.413c0.487,0,0.927-0.125,1.319-0.375
				c0.392-0.25,0.646-0.536,0.766-0.859v-1.199h-1.511c-0.543,0-0.977,0.136-1.303,0.409c-0.325,0.272-0.488,0.593-0.488,0.961
				c0,0.327,0.103,0.586,0.308,0.777C327.8,125.317,328.103,125.413,328.504,125.413z"/>
			<path style="fill:#FFFFFF;" d="M335.668,117.224v1.784h1.401v0.998h-1.401v4.491c0,0.346,0.071,0.59,0.215,0.731
				c0.144,0.141,0.334,0.212,0.571,0.212c0.077,0,0.163-0.01,0.256-0.027c0.094-0.019,0.177-0.041,0.25-0.068l0.178,0.923
				c-0.101,0.082-0.247,0.149-0.441,0.201c-0.193,0.053-0.389,0.079-0.584,0.079c-0.547,0-0.982-0.165-1.306-0.496
				c-0.324-0.33-0.485-0.849-0.485-1.555v-4.491h-1.176v-0.998h1.176v-1.784H335.668z"/>
			<path style="fill:#FFFFFF;" d="M341.8,126.548c-1.03,0-1.85-0.343-2.458-1.029c-0.608-0.686-0.912-1.575-0.912-2.669v-0.301
				c0-1.053,0.313-1.929,0.939-2.629c0.627-0.699,1.368-1.049,2.226-1.049c0.998,0,1.752,0.301,2.263,0.902
				c0.51,0.602,0.766,1.403,0.766,2.406v0.841h-4.799l-0.021,0.034c0.014,0.709,0.193,1.292,0.54,1.748
				c0.346,0.457,0.831,0.686,1.456,0.686c0.455,0,0.855-0.065,1.199-0.195c0.345-0.13,0.642-0.309,0.893-0.536l0.526,0.876
				c-0.265,0.261-0.613,0.479-1.046,0.653C342.938,126.461,342.415,126.548,341.8,126.548z M341.595,119.931
				c-0.451,0-0.837,0.189-1.155,0.568c-0.319,0.38-0.516,0.855-0.588,1.428l0.014,0.034h3.411v-0.178
				c0-0.526-0.142-0.967-0.424-1.321C342.569,120.107,342.15,119.931,341.595,119.931z"/>
		</g>
		<g>
			<path style="fill:#FFFFFF;" d="M430.277,126.404h-1.354v-9.953h1.354V126.404z"/>
			<path style="fill:#FFFFFF;" d="M433.764,119.008l0.096,0.971c0.241-0.352,0.547-0.623,0.919-0.817
				c0.372-0.193,0.804-0.29,1.296-0.29s0.914,0.113,1.268,0.342c0.354,0.228,0.619,0.569,0.797,1.025
				c0.232-0.42,0.539-0.752,0.922-0.998s0.83-0.369,1.34-0.369c0.752,0,1.348,0.259,1.785,0.775
				c0.438,0.518,0.656,1.296,0.656,2.335v4.423h-1.348v-4.437c0-0.729-0.125-1.245-0.375-1.549
				c-0.251-0.303-0.625-0.454-1.121-0.454c-0.461,0-0.834,0.159-1.118,0.479c-0.284,0.318-0.452,0.722-0.503,1.21v0.055v4.696
				h-1.354v-4.437c0-0.693-0.129-1.2-0.386-1.521s-0.628-0.481-1.11-0.481c-0.41,0-0.748,0.084-1.012,0.253
				c-0.265,0.168-0.468,0.405-0.609,0.711v5.476h-1.346v-7.396H433.764z"/>
			<path style="fill:#FFFFFF;" d="M451.1,122.986c0,1.066-0.256,1.927-0.766,2.58c-0.511,0.654-1.215,0.981-2.113,0.981
				c-0.455,0-0.855-0.076-1.199-0.229c-0.344-0.152-0.637-0.382-0.879-0.687v3.616h-1.346v-10.24h1.031l0.213,0.957
				c0.241-0.355,0.542-0.627,0.902-0.813c0.359-0.188,0.779-0.28,1.258-0.28c0.916,0,1.627,0.363,2.136,1.09
				c0.509,0.728,0.763,1.688,0.763,2.882V122.986z M449.752,122.839c0-0.837-0.164-1.525-0.495-2.065
				c-0.331-0.539-0.817-0.809-1.46-0.809c-0.387,0-0.717,0.088-0.99,0.263s-0.495,0.415-0.664,0.721v3.57
				c0.169,0.305,0.391,0.543,0.664,0.714c0.273,0.17,0.607,0.256,1.004,0.256c0.639,0,1.121-0.233,1.449-0.7
				s0.492-1.068,0.492-1.806V122.839z"/>
			<path style="fill:#FFFFFF;" d="M454.209,126.404h-1.346V115.74h1.346V126.404z"/>
			<path style="fill:#FFFFFF;" d="M459.35,126.548c-1.029,0-1.849-0.343-2.457-1.029c-0.608-0.686-0.912-1.575-0.912-2.669v-0.301
				c0-1.053,0.312-1.929,0.939-2.629c0.627-0.699,1.368-1.049,2.225-1.049c0.998,0,1.753,0.301,2.264,0.902
				c0.51,0.602,0.766,1.403,0.766,2.406v0.841h-4.799l-0.021,0.034c0.014,0.709,0.194,1.292,0.541,1.748
				c0.346,0.457,0.831,0.686,1.455,0.686c0.456,0,0.855-0.065,1.2-0.195s0.642-0.309,0.892-0.536l0.527,0.876
				c-0.265,0.261-0.613,0.479-1.047,0.653C460.489,126.461,459.965,126.548,459.35,126.548z M459.145,119.931
				c-0.451,0-0.836,0.189-1.154,0.568c-0.319,0.38-0.516,0.855-0.588,1.428l0.014,0.034h3.41v-0.178
				c0-0.526-0.141-0.967-0.424-1.321C460.12,120.107,459.701,119.931,459.145,119.931z"/>
			<path style="fill:#FFFFFF;" d="M464.887,119.008l0.096,0.971c0.242-0.352,0.549-0.623,0.92-0.817
				c0.371-0.193,0.803-0.29,1.295-0.29s0.916,0.113,1.269,0.342c0.353,0.228,0.618,0.569,0.796,1.025
				c0.232-0.42,0.541-0.752,0.924-0.998s0.829-0.369,1.34-0.369c0.752,0,1.346,0.259,1.783,0.775
				c0.438,0.518,0.656,1.296,0.656,2.335v4.423h-1.346v-4.437c0-0.729-0.126-1.245-0.377-1.549c-0.25-0.303-0.624-0.454-1.121-0.454
				c-0.46,0-0.832,0.159-1.117,0.479c-0.285,0.318-0.452,0.722-0.502,1.21v0.055v4.696h-1.354v-4.437c0-0.693-0.129-1.2-0.387-1.521
				s-0.628-0.481-1.111-0.481c-0.41,0-0.747,0.084-1.012,0.253c-0.264,0.168-0.467,0.405-0.607,0.711v5.476h-1.348v-7.396H464.887z"
				/>
			<path style="fill:#FFFFFF;" d="M478.99,126.548c-1.03,0-1.85-0.343-2.458-1.029c-0.608-0.686-0.913-1.575-0.913-2.669v-0.301
				c0-1.053,0.314-1.929,0.94-2.629c0.626-0.699,1.368-1.049,2.226-1.049c0.998,0,1.752,0.301,2.262,0.902
				c0.511,0.602,0.766,1.403,0.766,2.406v0.841h-4.799l-0.02,0.034c0.014,0.709,0.193,1.292,0.539,1.748
				c0.347,0.457,0.832,0.686,1.457,0.686c0.455,0,0.855-0.065,1.199-0.195s0.642-0.309,0.893-0.536l0.525,0.876
				c-0.264,0.261-0.612,0.479-1.045,0.653C480.129,126.461,479.605,126.548,478.99,126.548z M478.785,119.931
				c-0.451,0-0.837,0.189-1.156,0.568c-0.318,0.38-0.515,0.855-0.588,1.428l0.014,0.034h3.412v-0.178
				c0-0.526-0.142-0.967-0.424-1.321C479.76,120.107,479.341,119.931,478.785,119.931z"/>
			<path style="fill:#FFFFFF;" d="M484.527,119.008l0.096,1.101c0.246-0.393,0.555-0.696,0.926-0.913
				c0.371-0.216,0.794-0.324,1.268-0.324c0.798,0,1.416,0.233,1.854,0.7c0.438,0.468,0.656,1.188,0.656,2.164v4.669h-1.348v-4.642
				c0-0.652-0.129-1.114-0.386-1.388s-0.65-0.41-1.179-0.41c-0.388,0-0.73,0.093-1.029,0.28c-0.299,0.187-0.537,0.441-0.715,0.766
				v5.394h-1.346v-7.396H484.527z"/>
			<path style="fill:#FFFFFF;" d="M493.059,117.224v1.784h1.4v0.998h-1.4v4.491c0,0.346,0.071,0.59,0.215,0.731
				c0.144,0.141,0.334,0.212,0.57,0.212c0.078,0,0.164-0.01,0.257-0.027c0.093-0.019,0.177-0.041,0.249-0.068l0.178,0.923
				c-0.1,0.082-0.246,0.149-0.44,0.201c-0.194,0.053-0.389,0.079-0.585,0.079c-0.547,0-0.981-0.165-1.305-0.496
				c-0.324-0.33-0.486-0.849-0.486-1.555v-4.491h-1.176v-0.998h1.176v-1.784H493.059z"/>
		</g>
		<g>
			<path style="fill:#FFFFFF;" d="M162.587,123.897c0-0.453-0.171-0.832-0.513-1.138s-0.948-0.563-1.818-0.771
				c-1.053-0.251-1.874-0.621-2.464-1.11c-0.59-0.488-0.885-1.104-0.885-1.844c0-0.776,0.318-1.425,0.954-1.945
				c0.636-0.521,1.459-0.781,2.471-0.781c1.089,0,1.956,0.298,2.601,0.896c0.645,0.597,0.956,1.289,0.933,2.078l-0.014,0.041h-1.285
				c0-0.584-0.192-1.056-0.578-1.415c-0.385-0.36-0.938-0.54-1.658-0.54c-0.67,0-1.184,0.151-1.542,0.454
				c-0.358,0.304-0.537,0.698-0.537,1.187c0,0.433,0.194,0.794,0.581,1.083c0.387,0.29,1.016,0.544,1.887,0.763
				c1.048,0.26,1.846,0.643,2.393,1.148s0.82,1.132,0.82,1.88c0,0.802-0.328,1.446-0.984,1.935c-0.656,0.487-1.513,0.731-2.57,0.731
				c-0.994,0-1.872-0.271-2.635-0.811s-1.134-1.261-1.111-2.163l0.014-0.041h1.285c0,0.638,0.235,1.123,0.704,1.456
				c0.469,0.332,1.05,0.499,1.743,0.499c0.679,0,1.217-0.143,1.613-0.429C162.389,124.774,162.587,124.387,162.587,123.897z"/>
			<path style="fill:#FFFFFF;" d="M167.42,117.224v1.784h1.401v0.998h-1.401v4.491c0,0.346,0.072,0.59,0.215,0.731
				c0.144,0.141,0.334,0.212,0.571,0.212c0.078,0,0.163-0.01,0.256-0.027c0.093-0.019,0.177-0.041,0.25-0.068l0.178,0.923
				c-0.1,0.082-0.247,0.149-0.441,0.201c-0.194,0.053-0.389,0.079-0.584,0.079c-0.547,0-0.982-0.165-1.306-0.496
				c-0.324-0.33-0.485-0.849-0.485-1.555v-4.491h-1.176v-0.998h1.176v-1.784H167.42z"/>
			<path style="fill:#FFFFFF;" d="M173.983,120.197l-0.69-0.041c-0.355,0-0.655,0.084-0.899,0.253
				c-0.244,0.168-0.432,0.405-0.564,0.711v5.284h-1.347v-7.396h1.203l0.13,1.08c0.209-0.383,0.468-0.682,0.776-0.896
				c0.308-0.215,0.662-0.321,1.063-0.321c0.1,0,0.196,0.008,0.287,0.023c0.091,0.017,0.167,0.033,0.226,0.052L173.983,120.197z"/>
			<path style="fill:#FFFFFF;" d="M179.828,126.404c-0.045-0.224-0.081-0.421-0.106-0.592s-0.04-0.343-0.044-0.516
				c-0.25,0.355-0.578,0.652-0.981,0.892s-0.837,0.359-1.302,0.359c-0.77,0-1.357-0.197-1.76-0.592
				c-0.403-0.394-0.605-0.938-0.605-1.63c0-0.707,0.286-1.259,0.858-1.658c0.572-0.398,1.348-0.598,2.328-0.598h1.463v-0.731
				c0-0.434-0.132-0.776-0.396-1.029s-0.638-0.379-1.121-0.379c-0.433,0-0.785,0.11-1.056,0.331
				c-0.271,0.222-0.407,0.486-0.407,0.797h-1.285l-0.014-0.041c-0.027-0.538,0.227-1.03,0.762-1.477
				c0.536-0.447,1.227-0.67,2.075-0.67c0.838,0,1.513,0.213,2.023,0.639c0.51,0.427,0.766,1.04,0.766,1.843v3.562
				c0,0.264,0.014,0.52,0.041,0.766s0.078,0.487,0.15,0.725H179.828z M177.592,125.413c0.488,0,0.927-0.125,1.319-0.375
				s0.647-0.536,0.766-0.859v-1.199h-1.511c-0.542,0-0.977,0.136-1.302,0.409c-0.326,0.272-0.489,0.593-0.489,0.961
				c0,0.327,0.103,0.586,0.308,0.777C176.888,125.317,177.191,125.413,177.592,125.413z"/>
			<path style="fill:#FFFFFF;" d="M184.756,117.224v1.784h1.401v0.998h-1.401v4.491c0,0.346,0.072,0.59,0.215,0.731
				c0.144,0.141,0.334,0.212,0.571,0.212c0.078,0,0.163-0.01,0.256-0.027c0.093-0.019,0.177-0.041,0.25-0.068l0.178,0.923
				c-0.1,0.082-0.247,0.149-0.441,0.201c-0.194,0.053-0.389,0.079-0.584,0.079c-0.547,0-0.982-0.165-1.306-0.496
				c-0.324-0.33-0.485-0.849-0.485-1.555v-4.491h-1.176v-0.998h1.176v-1.784H184.756z"/>
			<path style="fill:#FFFFFF;" d="M190.888,126.548c-1.03,0-1.849-0.343-2.458-1.029c-0.608-0.686-0.913-1.575-0.913-2.669v-0.301
				c0-1.053,0.313-1.929,0.94-2.629c0.626-0.699,1.368-1.049,2.225-1.049c0.998,0,1.752,0.301,2.263,0.902s0.766,1.403,0.766,2.406
				v0.841h-4.799l-0.021,0.034c0.014,0.709,0.194,1.292,0.54,1.748c0.346,0.457,0.832,0.686,1.456,0.686
				c0.456,0,0.855-0.065,1.2-0.195s0.642-0.309,0.892-0.536l0.526,0.876c-0.264,0.261-0.613,0.479-1.046,0.653
				C192.027,126.461,191.503,126.548,190.888,126.548z M190.683,119.931c-0.451,0-0.836,0.189-1.155,0.568
				c-0.319,0.38-0.515,0.855-0.588,1.428l0.014,0.034h3.411v-0.178c0-0.526-0.141-0.967-0.424-1.321
				S191.239,119.931,190.683,119.931z"/>
			<path style="fill:#FFFFFF;" d="M194.928,122.843c0-1.189,0.26-2.149,0.779-2.878c0.52-0.729,1.237-1.094,2.153-1.094
				c0.469,0,0.882,0.095,1.237,0.283c0.355,0.189,0.652,0.462,0.889,0.817l0.164-0.964h1.073v7.438c0,0.947-0.276,1.676-0.827,2.184
				c-0.551,0.509-1.347,0.763-2.386,0.763c-0.355,0-0.739-0.049-1.152-0.147c-0.413-0.098-0.776-0.231-1.09-0.399l0.342-1.046
				c0.242,0.137,0.533,0.247,0.875,0.331c0.342,0.085,0.679,0.127,1.012,0.127c0.656,0,1.134-0.149,1.432-0.448
				c0.298-0.298,0.448-0.753,0.448-1.363v-0.834c-0.242,0.31-0.531,0.543-0.868,0.7s-0.725,0.236-1.162,0.236
				c-0.907,0-1.62-0.328-2.14-0.984s-0.779-1.516-0.779-2.577V122.843z M196.275,122.986c0,0.742,0.157,1.34,0.472,1.791
				s0.793,0.677,1.436,0.677c0.406,0,0.745-0.093,1.019-0.277s0.499-0.445,0.677-0.782v-3.404c-0.173-0.314-0.399-0.564-0.677-0.749
				s-0.613-0.276-1.005-0.276c-0.643,0-1.124,0.269-1.442,0.807c-0.319,0.537-0.479,1.228-0.479,2.071V122.986z"/>
			<path style="fill:#FFFFFF;" d="M204.635,117.114h-1.347v-1.374h1.347V117.114z M204.635,126.404h-1.347v-7.396h1.347V126.404z"/>
			<path style="fill:#FFFFFF;" d="M207.978,125.345h4.272v1.06h-5.879v-0.95l3.999-5.387h-3.951v-1.06h5.599v0.909L207.978,125.345z
				"/>
			<path style="fill:#FFFFFF;" d="M216.708,126.548c-1.03,0-1.849-0.343-2.458-1.029c-0.608-0.686-0.913-1.575-0.913-2.669v-0.301
				c0-1.053,0.313-1.929,0.94-2.629c0.626-0.699,1.368-1.049,2.225-1.049c0.998,0,1.752,0.301,2.263,0.902s0.766,1.403,0.766,2.406
				v0.841h-4.799l-0.021,0.034c0.014,0.709,0.194,1.292,0.54,1.748c0.346,0.457,0.832,0.686,1.456,0.686
				c0.456,0,0.855-0.065,1.2-0.195s0.642-0.309,0.892-0.536l0.526,0.876c-0.264,0.261-0.613,0.479-1.046,0.653
				C217.847,126.461,217.323,126.548,216.708,126.548z M216.502,119.931c-0.451,0-0.836,0.189-1.155,0.568
				c-0.319,0.38-0.515,0.855-0.588,1.428l0.014,0.034h3.411v-0.178c0-0.526-0.141-0.967-0.424-1.321
				S217.059,119.931,216.502,119.931z"/>
		</g>
		<g>
			<path style="fill:#FFFFFF;" d="M46.086,97.672l3.363-0.41v-13.48h-3.404v-2.283l7.383-1.34v17.104l3.363,0.41v2.393H46.086
				V97.672z"/>
		</g>
		<g>
			<path style="fill:#FFFFFF;" d="M322.324,88.416h2.242c0.947,0,1.649-0.248,2.105-0.745c0.455-0.497,0.684-1.188,0.684-2.071
				c0-0.802-0.229-1.444-0.684-1.928c-0.456-0.483-1.117-0.725-1.982-0.725c-0.748,0-1.377,0.219-1.887,0.656
				c-0.511,0.438-0.766,1.012-0.766,1.723h-3.869l-0.027-0.082c-0.055-1.559,0.542-2.844,1.791-3.855
				c1.248-1.012,2.798-1.518,4.648-1.518c2.06,0,3.702,0.492,4.929,1.477c1.226,0.984,1.839,2.388,1.839,4.211
				c0,0.866-0.273,1.688-0.82,2.468s-1.299,1.388-2.256,1.825c1.103,0.392,1.943,0.993,2.522,1.805
				c0.578,0.812,0.868,1.755,0.868,2.83c0,1.823-0.663,3.256-1.989,4.3s-3.024,1.565-5.093,1.565c-1.851,0-3.438-0.49-4.765-1.47
				s-1.967-2.363-1.921-4.149l0.027-0.082h3.869c0,0.766,0.273,1.396,0.82,1.894s1.239,0.745,2.078,0.745
				c0.92,0,1.647-0.255,2.181-0.766s0.8-1.203,0.8-2.078c0-1.048-0.263-1.816-0.786-2.304c-0.524-0.487-1.297-0.731-2.317-0.731
				h-2.242V88.416z"/>
		</g>
		<g>
			<path style="fill:#FFFFFF;" d="M466.278,92.654h2.256v2.652h-2.256v1.955l2.119,0.41v2.393h-8.23v-2.393l2.133-0.41v-1.955
				h-8.121l-0.191-1.955l8.271-13.193h4.02V92.654z M457.72,92.654h4.58v-7.178l-0.082-0.027l-0.328,0.574L457.72,92.654z"/>
		</g>
		<g>
			<path style="fill:#FFFFFF;" d="M181.26,100.064v-2.611l6.439-6.904c0.93-1.066,1.59-1.967,1.982-2.7
				c0.392-0.733,0.588-1.415,0.588-2.044c0-0.839-0.226-1.524-0.677-2.058s-1.092-0.8-1.921-0.8c-0.921,0-1.62,0.312-2.099,0.937
				s-0.718,1.456-0.718,2.495h-3.883l-0.027-0.082c-0.046-1.796,0.544-3.315,1.771-4.56c1.226-1.244,2.878-1.866,4.956-1.866
				c2.051,0,3.664,0.533,4.84,1.6s1.764,2.488,1.764,4.266c0,1.203-0.331,2.315-0.991,3.336c-0.661,1.021-1.757,2.352-3.288,3.992
				l-3.541,3.869l0.027,0.068h5.168l0.164-1.969h3.035v5.031H181.26z"/>
		</g>
	</g>
	<g>
		<g>
			<path style="fill:none;stroke:#FFFFFF;stroke-width:2;stroke-miterlimit:10;" d="M189.855,38.125
				C194.175,24.341,208.549,1,256.358,1c47.816,0,62.187,23.346,66.505,37.13"/>
			<g>
				<polygon style="fill:#FFFFFF;" points="197.296,37.585 188,48 183.626,34.743 				"/>
			</g>
			<g>
				<polygon style="fill:#FFFFFF;" points="315.421,37.585 324.717,48 329.091,34.743 				"/>
			</g>
		</g>
	</g>
</g>
<g>
</g>
</svg>
