<?xml version="1.0" encoding="iso-8859-1"?>
<!-- Generator: Adobe Illustrator 19.1.0, SVG Export Plug-In . SVG Version: 6.00 Build 0)  -->
<svg version="1.1" id="Layer_1" xmlns="http://www.w3.org/2000/svg" xmlns:xlink="http://www.w3.org/1999/xlink" x="0px" y="0px"
	 width="80px" height="80px" viewBox="0 0 80 80" style="enable-background:new 0 0 80 80;" xml:space="preserve">
<g>
	<g>
		<path style="opacity:0.12;" d="M80,40c0-0.02,0-0.04,0-0.06L65.58,25.52l-1.83,8.23l-49.67,12l-0.53,1.85l32.01,32.01
			C65.02,76.9,80,60.2,80,40z"/>
	</g>
	<path style="fill:#FFFFFF;" d="M64.81,25.7c0.78,3.18-5.29,8.27-15.56,10.79l-2.86,0.7l-6.96,1.71l-0.33-1.34l-1.53,0.37l0.33,1.34
		l-1.46,0.36l-0.33-1.34l-1.53,0.37l0.33,1.34l-1.46,0.36l-0.33-1.34l-1.53,0.37l0.33,1.34l-7.84,1.92l-8.62,2.12
		c-0.61-0.29-1.58-0.34-2.62-0.09l0.71,2.9c1.03-0.25,1.87-0.75,2.28-1.29l5.11-1.25c-0.6,1.07-0.82,2.35-0.51,3.63
		c0.65,2.67,3.35,4.3,6.02,3.65l7.84-1.92l0.33,1.34l1.53-0.37l-0.33-1.34l1.46-0.36l0.33,1.34l1.53-0.37l-0.33-1.34l1.46-0.36
		l0.33,1.34l1.53-0.37l-0.33-1.34l6.96-1.71c2.67-0.65,4.3-3.35,3.65-6.02c-0.31-1.28-1.1-2.31-2.12-2.98
		c9.94-2.29,17.36-0.59,18.12,2.52l0.76-0.19l-3.6-14.68L64.81,25.7z M26.08,50.81c-1.82,0.45-3.67-0.67-4.12-2.5
		c-0.45-1.82,0.67-3.67,2.5-4.12l7.84-1.92l1.62,6.61L26.08,50.81z M35.45,48.51l-1.62-6.61l1.46-0.36l1.62,6.61L35.45,48.51z
		 M38.44,47.78l-1.62-6.61l1.46-0.36l1.62,6.61L38.44,47.78z M48.39,45.34l-6.96,1.71l-1.62-6.61l6.96-1.71
		c1.82-0.45,3.67,0.67,4.12,2.5C51.34,43.04,50.22,44.89,48.39,45.34z"/>
</g>
</svg>
